<svg width="148" height="40" viewBox="0 0 148 40" fill="none" xmlns="http://www.w3.org/2000/svg">
<path d="M0 25C0 17.268 6.26801 11 14 11V40H5C2.23858 40 0 37.7614 0 35V25Z" fill="#3547AC"/>
<path d="M32 14C32 6.26801 25.732 0 18 0V40H27C29.7614 40 32 37.7614 32 35V14Z" fill="#F1582F"/>
<path d="M63.224 11.32V28H60.464V15.496L55.64 28H53.24L48.392 15.496V28H45.656V11.32H48.968L54.488 24.64L59.912 11.32H63.224ZM78.8034 20.752C78.8034 21.2 78.7714 21.592 78.7074 21.928H68.5314C68.5794 23.288 68.9554 24.296 69.6594 24.952C70.3634 25.608 71.2354 25.936 72.2754 25.936C73.1874 25.936 73.9554 25.704 74.5794 25.24C75.2194 24.776 75.6114 24.16 75.7554 23.392H78.6834C78.5074 24.32 78.1394 25.144 77.5794 25.864C77.0194 26.584 76.2914 27.152 75.3954 27.568C74.4994 27.968 73.4994 28.168 72.3954 28.168C71.1154 28.168 69.9794 27.896 68.9874 27.352C68.0114 26.808 67.2434 26.024 66.6834 25C66.1234 23.976 65.8434 22.768 65.8434 21.376C65.8434 20 66.1234 18.8 66.6834 17.776C67.2434 16.752 68.0114 15.968 68.9874 15.424C69.9794 14.88 71.1154 14.608 72.3954 14.608C73.6914 14.608 74.8194 14.88 75.7794 15.424C76.7554 15.952 77.4994 16.688 78.0114 17.632C78.5394 18.56 78.8034 19.6 78.8034 20.752ZM76.0434 20.68C76.0754 19.816 75.9234 19.096 75.5874 18.52C75.2674 17.928 74.8194 17.496 74.2434 17.224C73.6834 16.936 73.0674 16.792 72.3954 16.792C71.3234 16.792 70.4274 17.12 69.7074 17.776C68.9874 18.432 68.5954 19.4 68.5314 20.68H76.0434ZM88.8371 14.56C90.3731 14.56 91.6051 15.056 92.5331 16.048C93.4611 17.04 93.9251 18.456 93.9251 20.296V28H91.1891V20.584C91.1891 19.4 90.8851 18.488 90.2771 17.848C89.6691 17.192 88.8371 16.864 87.7811 16.864C86.6931 16.864 85.8211 17.216 85.1651 17.92C84.5091 18.608 84.1811 19.624 84.1811 20.968V28H81.4451V14.776H84.1811V17.68C84.5331 16.688 85.1251 15.92 85.9571 15.376C86.7891 14.832 87.7491 14.56 88.8371 14.56ZM102.429 14.608C103.629 14.608 104.653 14.904 105.501 15.496C106.349 16.088 106.949 16.872 107.301 17.848V14.776H110.037V28H107.301V24.928C106.949 25.904 106.349 26.688 105.501 27.28C104.653 27.872 103.629 28.168 102.429 28.168C101.277 28.168 100.245 27.896 99.3328 27.352C98.4368 26.808 97.7328 26.024 97.2208 25C96.7088 23.976 96.4528 22.768 96.4528 21.376C96.4528 20 96.7088 18.8 97.2208 17.776C97.7328 16.752 98.4368 15.968 99.3328 15.424C100.245 14.88 101.277 14.608 102.429 14.608ZM103.269 17.008C102.053 17.008 101.077 17.4 100.341 18.184C99.6208 18.952 99.2608 20.016 99.2608 21.376C99.2608 22.736 99.6208 23.808 100.341 24.592C101.077 25.36 102.053 25.744 103.269 25.744C104.037 25.744 104.725 25.568 105.333 25.216C105.941 24.848 106.421 24.336 106.773 23.68C107.125 23.024 107.301 22.256 107.301 21.376C107.301 20.512 107.125 19.752 106.773 19.096C106.421 18.424 105.941 17.912 105.333 17.56C104.725 17.192 104.037 17.008 103.269 17.008ZM116.056 17.368C116.504 16.504 117.144 15.824 117.976 15.328C118.808 14.816 119.768 14.56 120.856 14.56V17.536H120.04C118.84 17.536 117.872 17.832 117.136 18.424C116.416 19 116.056 19.96 116.056 21.304V28H113.32V14.776H116.056V17.368ZM125.642 17.368C126.09 16.504 126.73 15.824 127.562 15.328C128.394 14.816 129.354 14.56 130.442 14.56V17.536H129.626C128.426 17.536 127.458 17.832 126.722 18.424C126.002 19 125.642 19.96 125.642 21.304V28H122.906V14.776H125.642V17.368ZM137.796 14.608C138.996 14.608 140.02 14.904 140.868 15.496C141.716 16.088 142.316 16.872 142.668 17.848V14.776H145.404V28H142.668V24.928C142.316 25.904 141.716 26.688 140.868 27.28C140.02 27.872 138.996 28.168 137.796 28.168C136.644 28.168 135.612 27.896 134.7 27.352C133.804 26.808 133.1 26.024 132.588 25C132.076 23.976 131.82 22.768 131.82 21.376C131.82 20 132.076 18.8 132.588 17.776C133.1 16.752 133.804 15.968 134.7 15.424C135.612 14.88 136.644 14.608 137.796 14.608ZM138.636 17.008C137.42 17.008 136.444 17.4 135.708 18.184C134.988 18.952 134.628 20.016 134.628 21.376C134.628 22.736 134.988 23.808 135.708 24.592C136.444 25.36 137.42 25.744 138.636 25.744C139.404 25.744 140.092 25.568 140.7 25.216C141.308 24.848 141.788 24.336 142.14 23.68C142.492 23.024 142.668 22.256 142.668 21.376C142.668 20.512 142.492 19.752 142.14 19.096C141.788 18.424 141.308 17.912 140.7 17.56C140.092 17.192 139.404 17.008 138.636 17.008Z" fill="#0D1458"/>
</svg>
